<svg width="24" height="24" viewBox="0 0 24 24" fill="none" xmlns="http://www.w3.org/2000/svg">
<path d="M1.1248 9.59999H22.8752V7.99999H1.1248V9.59999ZM22.4 9.12479V9.82719H24V9.12479H22.4ZM19.8176 22.4H4.1824V24H19.8176V22.4ZM1.6 9.82719V9.12479H0V9.82719H1.6ZM4.6336 22.6784C2.63856 18.6882 1.59995 14.2883 1.6 9.82719H0C0 14.5376 1.096 19.1824 3.2032 23.3952L4.6336 22.6784ZM4.1824 22.4C4.3744 22.4 4.5488 22.5088 4.6336 22.6784L3.2032 23.3952C3.29429 23.5769 3.4341 23.7297 3.60702 23.8365C3.77994 23.9433 3.97916 23.9999 4.1824 24V22.4ZM19.3664 22.6784C19.4083 22.5947 19.4727 22.5242 19.5524 22.4751C19.6321 22.4259 19.724 22.3999 19.8176 22.4V24C20.2336 24 20.6112 23.7664 20.7968 23.3952L19.3664 22.6784ZM22.4 9.82719C22.4 14.288 21.36 18.688 19.3664 22.6784L20.7968 23.3952C22.9033 19.1825 24 14.5372 24 9.82719H22.4ZM22.8752 9.59999C22.7492 9.59999 22.6283 9.54993 22.5392 9.46081C22.4501 9.37169 22.4 9.25082 22.4 9.12479H24C24 8.82648 23.8815 8.54038 23.6706 8.32944C23.4596 8.1185 23.1735 7.99999 22.8752 7.99999V9.59999ZM1.1248 7.99999C0.826485 7.99999 0.540387 8.1185 0.329446 8.32944C0.118505 8.54038 0 8.82648 0 9.12479H1.6C1.6 9.25082 1.54993 9.37169 1.46082 9.46081C1.3717 9.54993 1.25083 9.59999 1.1248 9.59999V7.99999ZM6.2864 9.21119L11.0864 1.21119L9.712 0.388794L4.912 8.38879L6.2864 9.21119ZM12.9136 1.21119L17.7136 9.21119L19.0864 8.38879L14.2864 0.388794L12.9136 1.21119ZM8 16H16V14.4H8V16Z" fill="#FF9F0E"/>
</svg>
