<svg aria-hidden="true" style="position: absolute; width: 0; height: 0; overflow: hidden;" version="1.1" xmlns="http://www.w3.org/2000/svg" xmlns:xlink="http://www.w3.org/1999/xlink">
<defs>
<!-- <symbol id="icon-arrow" viewBox="0 0 32 32">
<path d="M6.343 23.082c0.995-6.532 6.422-11.846 11.95-11.838 0.032 0.167 0.105 0.377 0.052 0.539-0.891 2.748 0.297 4.881 2.223 6.77 1.482 1.492 3.194 2.709 5.24 3.328 0.586 0.159 1.171 0.319 1.807 0.358 2.328 0.183 3.552-1.060 3.436-3.334-0.077-1.529-0.764-2.808-1.713-3.978-1.619-2.036-3.737-3.566-6.224-4.625-0.498-0.195-0.997-0.391-1.702-0.681 2.414-2.613 5.681-3.197 8.807-4.242-0.551-0.034-1.097-0.149-1.652-0.101-2.876 0.442-5.566 1.308-7.725 3.236-0.628 0.538-1.204 0.915-2.136 0.858-3.604-0.179-6.623 1.202-9.153 3.644-1.897 1.821-3.346 3.957-4.344 6.369-0.25 0.603-0.499 1.206-0.941 2.168-1.161-1.884-2.167-3.511-3.173-5.139-0.13 0.033-0.262 0.108-0.391 0.141-0.062 0.326-0.215 0.729-0.105 1.024 0.508 1.432 1.016 2.864 1.611 4.26 0.56 1.27 1.208 2.505 1.768 3.775 0.563 1.229 1.223 1.558 2.088 0.622 1.501-1.598 2.84-3.329 4.222-5.058 0.184-0.236 0.043-0.698 0.023-1.070-0.429 0.056-0.977-0.018-1.246 0.212-0.945 0.849-1.723 1.749-2.72 2.759zM20.036 11.268c4.109 0.952 7.214 3.037 9.072 6.735 0.376 0.806 0.655 1.812-0.146 2.381-0.534 0.379-1.555 0.399-2.271 0.273-2.729-0.579-4.757-2.186-6.413-4.307-1.141-1.512-1.427-3.095-0.242-5.083z"></path>
</symbol> -->
<!-- Need -->
<symbol id="icon-arrow-slider" viewBox="0 0 36 32">
<path d="M1.062 17.414a2 2 0 0 1 0-2.828L13.79 1.858a2 2 0 1 1 2.828 2.828L5.304 16l11.314 11.314a2 2 0 1 1-2.828 2.828L1.062 17.414zM36 18H2.476v-4H36v4z"/>
</symbol>
<!-- Need -->
<symbol id="icon-basket" viewBox="0 0 32 32">
<path d="M1.5 12.8h29.001v-2.133h-29.001v2.133zM29.867 12.166v0.937h2.133v-0.937h-2.133zM26.423 29.867h-20.847v2.133h20.847v-2.133zM2.133 13.103v-0.937h-2.133v0.937h2.133zM6.178 30.238c-2.66-5.32-4.045-11.187-4.045-17.135h-2.133c0 6.281 1.461 12.474 4.271 18.091l1.907-0.956zM5.577 29.867c0.256 0 0.489 0.145 0.602 0.371l-1.907 0.956c0.121 0.242 0.308 0.446 0.538 0.588s0.496 0.218 0.767 0.218v-2.133zM25.822 30.238c0.056-0.112 0.142-0.206 0.248-0.271s0.229-0.1 0.354-0.1v2.133c0.555 0 1.058-0.311 1.306-0.806l-1.907-0.956zM29.867 13.103c0 5.948-1.387 11.814-4.045 17.135l1.907 0.956c2.809-5.617 4.271-11.811 4.271-18.091h-2.133zM30.5 12.8c-0.168 0-0.329-0.067-0.448-0.186s-0.186-0.28-0.186-0.448h2.133c0-0.398-0.158-0.779-0.439-1.060s-0.663-0.439-1.061-0.439v2.133zM1.5 10.667c-0.398 0-0.779 0.158-1.060 0.439s-0.439 0.663-0.439 1.060h2.133c0 0.168-0.067 0.329-0.186 0.448s-0.28 0.186-0.448 0.186v-2.133zM8.382 12.282l6.4-10.667-1.833-1.097-6.4 10.667 1.833 1.097zM17.218 1.615l6.4 10.667 1.83-1.097-6.4-10.667-1.83 1.097zM10.667 21.333h10.667v-2.133h-10.667v2.133z"></path>
</symbol>
<!-- Need -->
<symbol id="icon-burger-menu" viewBox="0 0 32 32">
<path d="M32 25.608c0 0.88-0.714 1.592-1.592 1.592h-12.816c-0.422 0-0.827-0.168-1.126-0.466s-0.466-0.704-0.466-1.126c0-0.422 0.168-0.827 0.466-1.126s0.704-0.466 1.126-0.466h12.816c0.88 0 1.592 0.712 1.592 1.592zM32 16c0 0.88-0.714 1.592-1.592 1.592h-28.816c-0.422 0-0.827-0.168-1.126-0.466s-0.466-0.703-0.466-1.126c0-0.422 0.168-0.827 0.466-1.126s0.704-0.466 1.126-0.466h28.816c0.88 0 1.592 0.714 1.592 1.592zM30.408 7.984c0.422 0 0.827-0.168 1.126-0.466s0.466-0.704 0.466-1.126c0-0.422-0.168-0.827-0.466-1.126s-0.704-0.466-1.126-0.466h-19.216c-0.209 0-0.416 0.041-0.609 0.121s-0.369 0.197-0.516 0.345c-0.148 0.148-0.265 0.323-0.345 0.516s-0.121 0.4-0.121 0.609c0 0.209 0.041 0.416 0.121 0.609s0.197 0.369 0.345 0.516c0.148 0.148 0.323 0.265 0.516 0.345s0.4 0.121 0.609 0.121h19.216z"></path>
</symbol>
<!-- Need -->
<symbol id="icon-close" viewBox="0 0 24 24">
<path stroke-linejoin="miter" stroke-linecap="round" stroke-miterlimit="4" stroke-width="2" d="M9 6l6 6 6-6M9 18l6-6 6 6"></path>
</symbol>
</defs>
</svg>
